<mxfile host="app.diagrams.net" modified="2021-11-02T07:41:27.804Z" agent="5.0 (Windows NT 10.0; Win64; x64) AppleWebKit/537.36 (KHTML, like Gecko) Chrome/95.0.4638.54 Safari/537.36 Edg/95.0.1020.40" etag="wtnpjx4JtcUNxmB9zEBW" version="15.6.5" type="github">
  <diagram name="Page-1" id="58cdce13-f638-feb5-8d6f-7d28b1aa9fa0">
    <mxGraphModel dx="782" dy="468" grid="1" gridSize="10" guides="1" tooltips="1" connect="1" arrows="1" fold="1" page="1" pageScale="1" pageWidth="1100" pageHeight="850" background="none" math="0" shadow="0">
      <root>
        <mxCell id="0" />
        <mxCell id="1" parent="0" />
        <mxCell id="MYGtIlzFAcCQ3HKHdNxI-6" style="edgeStyle=orthogonalEdgeStyle;rounded=0;orthogonalLoop=1;jettySize=auto;html=1;exitX=1;exitY=0.25;exitDx=0;exitDy=0;entryX=0;entryY=0.25;entryDx=0;entryDy=0;fontColor=default;strokeColor=default;labelBackgroundColor=default;" edge="1" parent="1" source="MYGtIlzFAcCQ3HKHdNxI-3" target="MYGtIlzFAcCQ3HKHdNxI-4">
          <mxGeometry relative="1" as="geometry" />
        </mxCell>
        <mxCell id="MYGtIlzFAcCQ3HKHdNxI-7" value="Received key request" style="edgeLabel;html=1;align=center;verticalAlign=middle;resizable=0;points=[];fontColor=default;labelBackgroundColor=default;" vertex="1" connectable="0" parent="MYGtIlzFAcCQ3HKHdNxI-6">
          <mxGeometry x="-0.2857" y="-1" relative="1" as="geometry">
            <mxPoint x="35" y="-16" as="offset" />
          </mxGeometry>
        </mxCell>
        <mxCell id="MYGtIlzFAcCQ3HKHdNxI-3" value="Idle" style="rounded=0;whiteSpace=wrap;html=1;fillColor=default;strokeColor=default;fontColor=default;" vertex="1" parent="1">
          <mxGeometry x="370" y="330" width="120" height="60" as="geometry" />
        </mxCell>
        <mxCell id="MYGtIlzFAcCQ3HKHdNxI-4" value="Working" style="rounded=0;whiteSpace=wrap;html=1;fillColor=default;strokeColor=default;fontColor=default;" vertex="1" parent="1">
          <mxGeometry x="700" y="330" width="120" height="60" as="geometry" />
        </mxCell>
        <mxCell id="MYGtIlzFAcCQ3HKHdNxI-5" value="" style="endArrow=classic;html=1;rounded=0;fontColor=default;strokeColor=default;labelBackgroundColor=default;exitX=0;exitY=0.75;exitDx=0;exitDy=0;" edge="1" parent="1" source="MYGtIlzFAcCQ3HKHdNxI-4">
          <mxGeometry width="50" height="50" relative="1" as="geometry">
            <mxPoint x="440" y="425" as="sourcePoint" />
            <mxPoint x="490" y="375" as="targetPoint" />
          </mxGeometry>
        </mxCell>
        <mxCell id="MYGtIlzFAcCQ3HKHdNxI-8" value="Received End command or timeout" style="edgeLabel;html=1;align=center;verticalAlign=middle;resizable=0;points=[];fontColor=default;labelBackgroundColor=default;" vertex="1" connectable="0" parent="MYGtIlzFAcCQ3HKHdNxI-5">
          <mxGeometry x="-0.1524" y="-2" relative="1" as="geometry">
            <mxPoint x="-11" y="17" as="offset" />
          </mxGeometry>
        </mxCell>
      </root>
    </mxGraphModel>
  </diagram>
</mxfile>
